<?xml version="1.0" encoding="UTF-8" standalone="no"?>
<!-- Created with Inkscape (http://www.inkscape.org/) -->

<svg
   width="102.63185mm"
   height="120.32214mm"
   viewBox="0 0 102.63185 120.32214"
   version="1.1"
   id="svg1"
   inkscape:version="1.3 (0e150ed6c4, 2023-07-21)"
   sodipodi:docname="safe-space-emblem.svg"
   xml:space="preserve"
   inkscape:export-filename="safe-space-logo.svg"
   inkscape:export-xdpi="96"
   inkscape:export-ydpi="96"
   xmlns:inkscape="http://www.inkscape.org/namespaces/inkscape"
   xmlns:sodipodi="http://sodipodi.sourceforge.net/DTD/sodipodi-0.dtd"
   xmlns="http://www.w3.org/2000/svg"
   xmlns:svg="http://www.w3.org/2000/svg"><sodipodi:namedview
     id="namedview1"
     pagecolor="#3f3f3f"
     bordercolor="#000000"
     borderopacity="0.25"
     inkscape:showpageshadow="2"
     inkscape:pageopacity="0.0"
     inkscape:pagecheckerboard="0"
     inkscape:deskcolor="#4e4e4e"
     inkscape:document-units="mm"
     inkscape:zoom="0.52221046"
     inkscape:cx="1013.959"
     inkscape:cy="539.05469"
     inkscape:window-width="1920"
     inkscape:window-height="1046"
     inkscape:window-x="-11"
     inkscape:window-y="-11"
     inkscape:window-maximized="1"
     inkscape:current-layer="layer1" /><defs
     id="defs1" /><g
     inkscape:label="Layer 1"
     inkscape:groupmode="layer"
     id="layer1"
     transform="translate(-148.3997,-401.8597)"><path
       style="fill:#ffffff"
       d="m 163.95924,522.00634 c -3.95005,-0.68019 -6.95977,-3.84139 -7.30117,-7.66866 -0.0935,-1.04827 0.36634,-4.48497 1.63404,-12.21219 l 1.76417,-10.75339 -1.31816,-1.31816 c -0.72499,-0.72499 -1.71436,-2.07721 -2.19859,-3.00494 l -0.88043,-1.68678 v -4.51164 -4.51164 l 0.99461,-2.01247 c 1.13603,-2.29859 3.10421,-4.29707 5.14738,-5.22661 0.69648,-0.31687 1.44373,-0.66922 1.66054,-0.78299 0.27754,-0.14565 0.63786,-1.68665 1.21745,-5.2068 0.69952,-4.2485 1.30878,-6.94761 1.84868,-8.18979 0.067,-0.15427 -0.47183,-0.4315 -1.20304,-0.6189 -1.81648,-0.46555 -5.34972,-2.20918 -7.30743,-3.60618 -8.49258,-6.06018 -11.88391,-17.68282 -8.04897,-27.5852 2.16737,-5.59648 6.85624,-10.57022 12.28563,-13.03202 3.27361,-1.48432 5.70549,-1.96594 9.80931,-1.94265 4.27985,0.0243 6.43316,0.49076 10.0163,2.16988 l 2.19321,1.02777 1.13413,-1.34996 c 3.30331,-3.93197 8.45435,-6.91517 13.52945,-7.83552 2.36985,-0.42976 6.88577,-0.36957 9.20154,0.12266 9.05702,1.92511 16.30689,9.2616 18.31488,18.53373 0.55009,2.54013 0.43685,7.26804 -0.24005,10.02162 -0.56153,2.28424 -2.05559,5.76488 -3.22239,7.50702 -0.40889,0.61051 -0.47246,0.85853 -0.2192,0.85517 0.19619,-0.003 4.20711,-0.17609 8.91315,-0.38554 9.19576,-0.40928 10.20601,-0.34758 12.65317,0.77277 1.97681,0.90501 3.18319,1.89092 4.50005,3.67766 2.92539,3.9692 2.92539,9.60631 0,13.57551 -1.60655,2.17979 -3.45013,3.47918 -6.13049,4.3209 -0.58209,0.18279 -1.15595,0.42154 -1.27526,0.53055 -0.11931,0.109 0.0993,2.38542 0.48572,5.0587 0.61777,4.27336 0.6673,5.10054 0.40995,6.84745 -0.55921,3.79605 -2.93593,7.49544 -6.13398,9.54763 -0.7104,0.45586 -1.29044,0.96526 -1.28896,1.13199 0.001,0.16673 0.70081,6.80447 1.55408,14.75054 1.65982,15.45705 1.6798,16.12395 0.54895,18.32445 -0.84933,1.65271 -2.51884,3.21695 -4.3236,4.05099 l -1.61857,0.748 -32.94062,0.039 c -18.11734,0.0214 -33.49181,-0.0559 -34.16548,-0.17193 z m 48.0141,-4.16652 c 0.18592,-0.30362 2.12977,-26.50928 1.97765,-26.6614 -0.0733,-0.0733 -0.6579,0.054 -1.29906,0.28292 -6.62939,2.367 -14.17021,-2.23039 -15.29179,-9.32291 -0.54308,-3.43424 0.64741,-7.31614 3.02237,-9.85515 2.43888,-2.60736 0.3477,-1.80894 30.86391,-11.784 11.47081,-3.74955 11.86156,-3.8995 13.12708,-5.03731 1.83556,-1.65032 2.53518,-3.36096 2.37532,-5.80786 -0.14612,-2.23647 -0.79078,-3.62286 -2.33208,-5.01534 -1.91931,-1.73397 -2.50228,-1.8806 -7.13369,-1.79421 -2.25557,0.0421 -10.29229,0.34725 -17.85938,0.67818 -8.88712,0.38866 -14.01791,0.51499 -14.49151,0.35682 -1.36708,-0.45658 -1.71512,-2.30697 -0.62632,-3.32984 0.58565,-0.55019 0.98831,-0.60351 6.41614,-0.84958 l 5.79128,-0.26256 1.25164,-1.32608 c 1.67322,-1.77272 2.98622,-4.07469 3.97895,-6.9759 0.73453,-2.14665 0.82001,-2.72251 0.82672,-5.56921 0.008,-3.60971 -0.39966,-5.53711 -1.79295,-8.46667 -2.48849,-5.23236 -7.42859,-9.26688 -12.99561,-10.61336 -2.72262,-0.65851 -6.86218,-0.59982 -9.51003,0.13483 -6.37174,1.76785 -11.42285,6.57093 -13.52383,12.85978 -2.38944,7.15228 0.0222,15.57659 5.9302,20.7152 0.87572,0.76167 1.67005,1.63011 1.76519,1.92986 0.21477,0.6767 -0.30373,1.98792 -0.89148,2.25441 -0.24134,0.10942 -2.1652,0.34153 -4.27526,0.51579 -6.03588,0.49848 -9.03732,1.77788 -12.68874,5.4087 -3.43531,3.41593 -4.54583,5.93113 -5.67273,12.84814 -0.37869,2.32442 -0.68853,4.35786 -0.68853,4.51876 0,0.1609 0.49165,0.37117 1.09255,0.46725 3.95343,0.63218 7.61206,4.43967 8.4091,8.75125 1.6979,9.18478 -3.3643,16.2771 -11.61791,16.2771 h -2.06053 l -0.26764,1.52135 c -1.66656,9.47337 -3.02529,18.85185 -2.85884,19.73279 0.24314,1.28678 1.56303,2.73319 2.93765,3.21924 0.88082,0.31145 4.99434,0.37617 24.52449,0.38583 12.90638,0.006 23.52083,-0.0777 23.58767,-0.18682 z m 18.55042,-0.0949 c 1.32312,-0.36734 2.65463,-1.68578 3.01289,-2.98331 0.22166,-0.80276 -0.0184,-3.78299 -1.20329,-14.93654 -0.8141,-7.66354 -1.55646,-14.02198 -1.64968,-14.12989 -0.0932,-0.10791 -2.86715,0.70397 -6.16429,1.80418 l -5.99481,2.00038 -0.14288,1.10623 c -0.16641,1.28844 -2.00787,25.95349 -2.00361,26.83696 l 0.003,0.59532 6.54843,-10e-4 c 3.93695,-8.9e-4 6.96555,-0.11728 7.59436,-0.29185 z m -61.10633,-29.43335 c 1.48617,-0.69354 3.15342,-2.39212 3.76768,-3.83847 0.22658,-0.53351 0.46583,-2.09158 0.53647,-3.49367 0.17478,-3.46908 -0.33698,-5.21938 -2.01739,-6.8998 -3.5366,-3.53659 -9.49867,-2.20365 -11.60327,2.59415 -0.70254,1.60155 -0.65233,6.71522 0.0814,8.29156 0.68185,1.46486 2.0124,2.81559 3.41426,3.46606 1.5507,0.71953 4.13624,0.6663 5.82084,-0.11983 z m 51.86495,-4.16114 c 6.09495,-2.04894 11.44435,-3.91072 11.88755,-4.1373 2.37878,-1.2161 4.03206,-3.31829 4.80466,-6.10926 0.45062,-1.62783 0.44656,-1.78217 -0.16562,-6.29265 -0.39469,-2.90804 -0.73144,-4.58551 -0.90748,-4.52044 -0.15394,0.0569 -7.12599,2.33206 -15.49344,5.0559 -8.36745,2.72384 -15.7083,5.23952 -16.31301,5.59038 -2.95413,1.71407 -4.3077,5.41714 -3.28217,8.97932 0.5228,1.81597 2.84356,4.163 4.67119,4.72406 2.53567,0.77843 3.00894,0.67321 14.79832,-3.29001 z m -51.34832,-35.04582 c 3.22,-4.17508 8.50137,-7.20985 14.23813,-8.18149 l 0.99644,-0.16876 -1.20105,-1.68312 c -2.56386,-3.59293 -4.0239,-7.88599 -4.27797,-12.57881 -0.20657,-3.81571 0.35743,-6.74053 2.14654,-11.13158 0.20749,-0.50925 -2.31789,-1.81427 -4.90065,-2.53246 -2.65172,-0.73737 -7.72607,-0.67407 -10.2962,0.12845 -5.61236,1.75245 -9.6786,5.24708 -12.2092,10.49288 -1.24619,2.5833 -1.80305,5.08226 -1.80912,8.11864 -0.006,3.18751 0.58368,5.75413 1.96562,8.55011 2.4962,5.05038 6.81817,8.68881 12.12376,10.20635 0.9068,0.25936 1.70827,0.47321 1.78103,0.47521 0.0728,0.002 0.72196,-0.76094 1.44267,-1.69542 z"
       id="path3" /><path
       style="fill:#c3b1ff;fill-opacity:1;fill-rule:evenodd;stroke-width:53.3676;stroke-dasharray:none"
       d="m 1344.8234,1616.7881 c -33.5423,-11.7206 -54.138,-46.0277 -48.3243,-80.4954 7.324,-43.4215 53.2711,-70.9502 94.73,-56.7564 4.0562,1.3886 8.7133,3.4017 10.3491,4.4736 l 2.9741,1.9487 -3.4276,9.2037 c -4.6207,12.407 -5.7513,34.8491 -2.4934,49.4926 2.1696,9.7524 8.4483,24.2702 14.2711,32.9982 l 2.8219,4.2299 -9.1647,2.2845 c -16.2358,4.0472 -28.157,10.9683 -41.2726,23.9619 l -11.7969,11.6871 z"
       id="path5"
       transform="matrix(0.26458333,0,0,0.26458333,-189.94712,22.018545)" /><path
       style="fill:#c3b1ff;fill-opacity:1;fill-rule:evenodd;stroke-width:53.3676;stroke-dasharray:none"
       d="m 1495.439,1756.4833 c -3.6626,-1.9172 -7.6676,-5.6375 -10.3685,-9.6315 -3.6908,-5.4579 -4.3959,-7.7388 -4.3709,-14.1405 0.037,-9.557 3.5795,-17.6263 9.8308,-22.3944 3.244,-2.4743 23.2618,-9.7344 63.4499,-23.0122 50.1202,-16.5593 58.8346,-19.0784 59.557,-17.2161 0.4654,1.1997 1.6501,8.7614 2.6328,16.8036 1.4219,11.6375 1.4498,15.8816 0.1365,20.7918 -2.1214,7.9316 -8.417,17.0523 -14.2654,20.6668 -7.188,4.4424 -88.6962,31.2186 -95.0927,31.2388 -3.1907,0.01 -8.0735,-1.3077 -11.5095,-3.1063 z"
       id="path6"
       transform="matrix(0.26458333,0,0,0.26458333,-189.94712,22.018545)" /><path
       style="fill:#c3b1ff;fill-opacity:1;fill-rule:evenodd;stroke-width:53.3676;stroke-dasharray:none"
       d="m 1334.9262,1761.0714 c -2.3341,-1.4232 -5.9901,-4.8753 -8.1244,-7.6712 -3.5463,-4.6456 -3.9178,-6.2007 -4.3134,-18.0566 -0.3862,-11.5719 -0.082,-13.6314 2.8132,-19.0665 4.5191,-8.4826 13.7897,-14.121 23.2176,-14.121 8.3472,0 14.2757,3.0737 20.2967,10.523 4.0874,5.057 4.2058,5.5905 4.2058,18.9569 0,12.173 -0.3745,14.3558 -3.2586,18.9954 -4.9795,8.0104 -13.8819,13.0391 -23.0723,13.0329 -5.0137,0 -8.9354,-0.8677 -11.7646,-2.5929 z"
       id="path7"
       transform="matrix(0.26458333,0,0,0.26458333,-189.94712,22.018545)" /></g></svg>
