<?xml version="1.0" encoding="UTF-8" standalone="no"?>
<!-- Created with Inkscape (http://www.inkscape.org/) -->

<svg
   width="500.88504mm"
   height="120.10708mm"
   viewBox="0 0 500.88506 120.10707"
   version="1.1"
   id="svg1"
   inkscape:version="1.3 (0e150ed6c4, 2023-07-21)"
   sodipodi:docname="safe-space-emblem.svg"
   xml:space="preserve"
   inkscape:export-filename="safe-space-logo.svg"
   inkscape:export-xdpi="96"
   inkscape:export-ydpi="96"
   xmlns:inkscape="http://www.inkscape.org/namespaces/inkscape"
   xmlns:sodipodi="http://sodipodi.sourceforge.net/DTD/sodipodi-0.dtd"
   xmlns="http://www.w3.org/2000/svg"
   xmlns:svg="http://www.w3.org/2000/svg"><sodipodi:namedview
     id="namedview1"
     pagecolor="#3f3f3f"
     bordercolor="#000000"
     borderopacity="0.25"
     inkscape:showpageshadow="2"
     inkscape:pageopacity="0.0"
     inkscape:pagecheckerboard="0"
     inkscape:deskcolor="#4e4e4e"
     inkscape:document-units="mm"
     inkscape:zoom="0.52221046"
     inkscape:cx="1013.959"
     inkscape:cy="539.05469"
     inkscape:window-width="1920"
     inkscape:window-height="1046"
     inkscape:window-x="-11"
     inkscape:window-y="-11"
     inkscape:window-maximized="1"
     inkscape:current-layer="layer1" /><defs
     id="defs1" /><g
     inkscape:label="Layer 1"
     inkscape:groupmode="layer"
     id="layer1"
     transform="translate(-23.30585,-42.413429)"><path
       style="fill:#ffffff"
       d="m 37.199275,162.12454 c -2.07299,-0.7603 -4.02023,-2.60495 -4.92115,-4.66186 -1.01681,-2.32151 -0.97893,-2.92078 0.92435,-14.6241 l 1.78917,-11.00165 -1.36218,-1.34794 c -0.77008,-0.76203 -1.73719,-2.10925 -2.22494,-3.09942 -0.82571,-1.67626 -0.86667,-1.90707 -0.9538,-5.37504 -0.0967,-3.84818 0.18802,-5.49072 1.34476,-7.75811 0.86254,-1.69072 3.32261,-3.91314 5.2713,-4.76208 l 1.71235,-0.74599 0.74745,-4.6586 c 0.41109,-2.56224 1.01884,-5.610587 1.35054,-6.774107 0.33169,-1.16353 0.58272,-2.12706 0.55782,-2.14118 -0.0249,-0.0141 -1.05683,-0.37184 -2.29319,-0.79492 -5.82074,-1.99184 -10.59969,-6.2211 -13.35539,-11.81921 -2.85232,-5.79439 -3.24637,-11.849287 -1.17375,-18.035627 4.47411,-13.354346 19.98688,-19.782966 32.5736,-13.49877 l 1.77361,0.885515 2.59243,-2.566198 c 4.81102,-4.762337 10.00204,-6.931823 16.58606,-6.931823 6.55391,0 11.91724,2.230473 16.56265,6.887982 2.66701,2.673959 3.73158,4.236226 5.16511,7.579819 1.203145,2.806242 1.716305,5.547195 1.716305,9.167325 0,4.46467 -1.04956,8.21552 -3.442735,12.303437 l -0.82572,1.41044 5.243085,-0.21982 c 2.88369,-0.1209 7.44868,-0.21981 10.14442,-0.21981 h 4.90135 l 1.73327,0.85377 c 2.13429,1.05131 4.48728,3.43399 5.43456,5.50312 2.04667,4.47053 1.13265,9.5956 -2.3286,13.05685 -1.35906,1.359057 -3.88301,2.789377 -5.48891,3.110557 -0.98526,0.19705 -0.98099,0.12719 -0.28947,4.72779 0.97451,6.4833 0.5954,9.68742 -1.53649,12.98587 -1.10227,1.7054 -3.11679,3.63447 -4.48278,4.29261 -0.61276,0.29524 -0.8599,0.59505 -0.8599,1.0432 0,0.3459 0.66308,6.72345 1.47352,14.17235 1.66655,15.31781 1.70385,16.72859 0.50063,18.93929 -0.97404,1.78964 -2.68906,3.3012 -4.52484,3.98805 -1.41919,0.53099 -1.87764,0.53775 -35.228495,0.51935 -28.35875,-0.0157 -33.95382,-0.0785 -34.806,-0.39107 z m 68.769525,-4.06078 c 0.59352,-0.26956 1.33089,-0.81017 1.63859,-1.20134 1.27286,-1.61819 1.27497,-1.517 -0.34637,-16.62671 -0.83106,-7.74491 -1.5617,-14.1372 -1.62363,-14.20508 -0.1611,-0.17657 -11.561915,3.64098 -12.039915,4.03156 -0.31912,0.26076 -0.59181,2.97238 -1.37633,13.68664 -0.5381,7.34881 -0.97367,13.68888 -0.96793,14.08907 l 0.0104,0.7276 6.81302,-0.006 c 6.059545,-0.005 6.932365,-0.06 7.892145,-0.49593 z M 44.323745,128.93415 c 1.32105,-0.56627 2.8124,-2.01723 3.61258,-3.51474 0.53183,-0.99528 0.59711,-1.49349 0.59711,-4.55703 0,-3.78603 -0.19581,-4.45197 -1.81556,-6.17474 -1.4066,-1.49605 -2.67674,-2.01507 -4.93132,-2.01507 -2.96184,0 -5.05235,1.24385 -6.47089,3.85017 -0.64681,1.1884 -0.77624,1.77178 -0.88245,3.97741 -0.0744,1.54508 0.001,3.08422 0.1882,3.82647 1.0652,4.2303 5.58031,6.37448 9.70233,4.60753 z m 52.27255,-4.36008 c 11.631055,-3.92335 12.842075,-4.45208 14.390625,-6.28313 1.02315,-1.20978 1.96391,-3.36289 2.14781,-4.91561 0.12724,-1.07435 -0.82129,-9.46833 -1.10675,-9.79418 -0.0402,-0.0458 -5.23457,1.59977 -11.54315,3.65688 -6.308585,2.0571 -13.137025,4.28369 -15.174315,4.94797 -4.53408,1.4784 -5.87829,2.13454 -7.00732,3.42043 -3.71479,4.23091 -2.14197,10.54799 3.09095,12.41453 2.28871,0.81637 3.12662,0.62638 15.20215,-3.44689 z M 44.301205,90.301423 c 1.17429,-1.69451 4.40483,-4.60404 6.4825,-5.83836 2.17238,-1.29059 5.43799,-2.52279 7.36262,-2.7781 1.99569,-0.26474 2.07562,-0.40311 1.02669,-1.77728 -3.43095,-4.494777 -5.15,-10.864677 -4.45603,-16.511667 0.26086,-2.122613 1.0662,-5.12724 2.02585,-7.558184 0.15029,-0.380727 -0.14599,-0.615865 -1.61567,-1.282251 -3.16516,-1.435152 -5.61917,-1.909729 -9.1006,-1.759951 -5.23669,0.225292 -9.28195,2.018109 -12.97126,5.748724 -2.28156,2.307105 -3.46951,4.184212 -4.58253,7.240912 -0.6714,1.84389 -0.80476,2.64833 -0.91011,5.49005 -0.10311,2.78118 -0.0328,3.68809 0.42696,5.506137 1.41927,5.61245 5.11306,10.21414 10.22506,12.73827 1.70175,0.84027 4.1988,1.71802 5.18953,1.82421 0.0893,0.01 0.493,-0.45955 0.89699,-1.04251 z"
       id="path2-6"
       inkscape:export-filename="safe-space-icon.png"
       inkscape:export-xdpi="96"
       inkscape:export-ydpi="96" /><path
       style="font-size:82.2298px;font-family:'Berlin Sans FB';-inkscape-font-specification:'Berlin Sans FB, Normal';letter-spacing:2.2689px;word-spacing:2.2689px;fill:#ffffff;fill-rule:evenodd;stroke-width:12.8635"
       d="m 193.14085,81.890224 q -0.80302,1.324992 -2.20832,4.015127 -0.44166,1.244689 -1.5659,3.533311 -0.2409,0.361362 -0.64242,0.361362 0.0402,0 -3.89467,-1.405295 -3.89467,-1.445445 -6.4242,-1.445445 -7.38784,0 -7.38784,6.504505 0,3.613614 5.17952,6.303749 8.71282,4.537092 9.6363,5.219662 5.17952,4.13558 5.17952,11.16206 0,8.99388 -7.10678,14.17339 -6.38405,4.65755 -15.69914,4.65755 -4.33634,0 -4.65755,-0.96363 -0.16061,-1.52575 -0.72272,-4.45679 -0.32121,-1.20454 -1.00379,-3.61361 -0.12045,-0.36137 -0.12045,-0.68258 0,-0.56211 0.60227,-0.56211 0.96363,0 2.93104,0.20075 2.00756,0.20076 3.01135,0.20076 12.44689,0 12.44689,-8.03025 0,-3.93483 -5.01891,-6.82572 -9.15449,-5.21967 -9.35524,-5.42042 -5.05906,-4.09543 -5.05906,-11.001449 0,-7.468136 4.89845,-11.965078 4.778,-4.336337 12.36659,-4.336337 3.2121,0 7.38783,1.043933 4.5371,1.164387 6.82572,2.810589 0.20076,0.160605 0.40151,0.521966 z m 47.43908,15.940054 q 0,0.160605 -0.12046,0.722722 -1.5659,9.19464 -1.5659,15.85975 0,0.40151 1.00379,18.02792 l 0.0402,0.56212 q 0.0401,1.16439 -1.08409,1.16439 -1.08408,0 -3.33255,0.2409 -2.20832,0.28106 -3.29241,0.28106 -0.76287,0 -1.16438,-2.81059 -0.40152,-2.81059 -0.76288,-2.81059 -0.2409,0 -2.16816,1.5659 -2.36893,1.92726 -4.41664,2.93105 -3.17195,1.60605 -6.3439,1.60605 -7.78935,0 -13.12947,-6.22345 -5.05906,-5.94239 -5.05906,-13.85219 0,-8.91358 5.09921,-14.73551 5.34012,-6.062844 14.05295,-6.062844 6.14314,0 10.72038,4.256034 0.68258,0.803026 2.12802,2.32877 0.12046,0.12046 0.24091,0.12046 0.24091,0 0.68257,-2.529532 0.44166,-2.52953 1.12424,-2.52953 1.08408,0 4.05527,0.602269 3.29241,0.722723 3.29241,1.284841 z m -10.23858,16.783232 q 0,-4.93861 -2.93104,-8.47192 -3.09165,-3.81437 -7.9098,-3.81437 -4.81815,0 -8.03025,3.77422 -3.09165,3.61361 -3.09165,8.51207 0,4.8583 3.09165,8.43176 3.2121,3.73407 8.03025,3.73407 4.6977,0 7.86965,-3.81437 2.97119,-3.57346 2.97119,-8.35146 z m 39.77019,-31.920261 q 0,0.481816 -0.72272,0.562118 -1.96741,0.200757 -3.89467,0.361362 -2.28863,0.32121 -3.49316,1.60605 -1.96742,2.128018 -1.96742,10.800691 1.32499,0 4.17573,0.0803 2.85074,0.0803 4.29619,0.0803 0.96363,0 0.96363,0.722722 0,1.124236 0.0803,3.372698 0.0803,2.20832 0.0803,3.29241 0,0.76287 -0.80303,0.76287 -1.40529,0 -4.25603,-0.12045 -2.85074,-0.16061 -4.21589,-0.16061 v 12.00523 q 0,2.81059 0.20076,8.51207 0.20076,5.70148 0.20076,8.51207 0,1.08409 -0.80303,1.08409 h -7.34768 q -1.04393,0 -1.04393,-1.24469 V 105.2984 q 0,-1.08408 -2.44923,-1.04393 -2.64999,0.0401 -2.81059,-0.20076 -0.12045,-0.12045 -0.12045,-1.48559 0,-0.88333 -0.0803,-2.609831 -0.0803,-1.766656 -0.0803,-2.649984 0,-0.843177 5.09921,-1.124235 -0.12045,-2.569682 -0.12045,-4.175732 0,-7.106775 2.52953,-10.399179 2.24847,-2.971194 6.58481,-4.657547 3.89467,-1.525748 8.0704,-1.525748 0.40151,0 0.56212,0.441664 0.0401,0.0803 0.68257,3.412858 0.68257,3.292404 0.68257,3.412857 z m 39.73004,29.912691 q 0,2.9712 -2.56969,3.97498 -1.7265,0.64242 -24.85363,2.36892 0.52197,3.53332 3.89467,6.02269 3.2121,2.36893 6.90602,2.36893 6.3439,0 11.64387,-4.09543 0.64242,-0.52197 1.28484,-1.04393 0.32121,0 0.40151,0.0803 0.12046,0.0803 1.52575,2.81059 1.40529,2.69013 1.40529,2.89089 0,0.24091 -0.64242,0.92348 -5.90223,6.2636 -15.13702,6.2636 -9.3151,0 -14.85597,-5.54088 -5.54088,-5.58102 -5.54088,-14.85597 0,-8.27116 5.29997,-14.4143 5.58103,-6.384054 13.69158,-6.384054 7.54844,0 12.6075,5.540875 4.93861,5.380269 4.93861,13.089309 z m -9.55601,-2.44922 q 0,-3.33256 -2.64998,-5.90224 -2.60983,-2.56968 -5.90224,-2.56968 -3.69391,0 -6.5848,2.97119 -2.85074,2.9712 -2.85074,6.66511 0,0.84318 1.44544,0.84318 5.94239,0 14.21355,-1.20454 2.32877,-0.32121 2.32877,-0.80302 z m 49.68756,-28.266496 q -0.80303,1.324992 -2.20832,4.015127 -0.44167,1.244689 -1.5659,3.533311 -0.24091,0.361362 -0.64242,0.361362 0.0401,0 -3.89467,-1.405295 -3.89468,-1.445445 -6.42421,-1.445445 -7.38783,0 -7.38783,6.504505 0,3.613614 5.17951,6.303749 8.71283,4.537092 9.63631,5.219662 5.17951,4.13558 5.17951,11.16206 0,8.99388 -7.10677,14.17339 -6.38406,4.65755 -15.69915,4.65755 -4.33634,0 -4.65755,-0.96363 -0.1606,-1.52575 -0.72272,-4.45679 -0.32121,-1.20454 -1.00378,-3.61361 -0.12045,-0.36137 -0.12045,-0.68258 0,-0.56211 0.60226,-0.56211 0.96363,0 2.93105,0.20075 2.00756,0.20076 3.01134,0.20076 12.4469,0 12.4469,-8.03025 0,-3.93483 -5.01891,-6.82572 -9.15449,-5.21967 -9.35525,-5.42042 -5.05906,-4.09543 -5.05906,-11.001449 0,-7.468136 4.89846,-11.965078 4.778,-4.336337 12.36659,-4.336337 3.2121,0 7.38783,1.043933 4.53709,1.164387 6.82572,2.810589 0.20075,0.160605 0.40151,0.521966 z m 48.5633,32.964196 q 0,8.11055 -5.13936,14.09309 -5.38027,6.30375 -13.37037,6.30375 -4.97876,0 -8.71283,-3.09165 -1.68635,-1.5659 -3.3727,-3.17195 -0.24091,0.12046 -0.32122,0.64242 -0.0402,0.24091 -0.0402,4.49694 l -0.0401,11.32266 q 0,1.28484 -0.92348,1.28484 -6.18329,0 -7.30753,-0.1606 -0.92348,-0.12046 -0.92348,-1.04394 0,-5.13936 0.0803,-15.41808 0.0803,-10.27873 0.0803,-15.41809 0,-9.43555 -1.20454,-17.706709 -0.0803,-0.481815 -0.0803,-0.64242 0,-0.441664 0.40151,-0.562118 1.52575,-0.0803 4.45679,-0.441664 3.93483,-0.722723 4.41664,-0.722723 0.68257,0 0.88333,2.409076 0.12045,1.606051 0.20075,3.171948 0,0.32121 0.24091,0.64242 0.28106,-0.1606 0.64242,-0.56212 5.62118,-5.741626 11.36281,-5.741626 7.94995,0 13.41053,6.223446 5.25981,5.98254 5.25981,14.0931 z m -9.3954,-0.16061 q 0,-4.81815 -3.01134,-8.47192 -3.17195,-3.89467 -7.9098,-3.89467 -4.65755,0 -7.62874,4.01513 -2.73029,3.61361 -2.73029,8.43176 0,4.89846 2.81059,8.51207 3.09165,3.89467 7.86965,3.89467 4.57724,0 7.70904,-4.05527 2.89089,-3.77422 2.89089,-8.43177 z m 56.91478,-16.863532 q 0,0.160605 -0.12045,0.722722 -1.5659,9.19464 -1.5659,15.85975 0,0.40151 1.00378,18.02792 l 0.0401,0.56212 q 0.0401,1.16439 -1.08408,1.16439 -1.08409,0 -3.33256,0.2409 -2.20832,0.28106 -3.2924,0.28106 -0.76288,0 -1.16439,-2.81059 -0.40151,-2.81059 -0.76287,-2.81059 -0.24091,0 -2.16817,1.5659 -2.36893,1.92726 -4.41664,2.93105 -3.17195,1.60605 -6.3439,1.60605 -7.78935,0 -13.12947,-6.22345 -5.05906,-5.94239 -5.05906,-13.85219 0,-8.91358 5.09922,-14.73551 5.34011,-6.062844 14.05294,-6.062844 6.14314,0 10.72039,4.256034 0.68257,0.803026 2.12801,2.32877 0.12046,0.12046 0.24091,0.12046 0.24091,0 0.68257,-2.529532 0.44167,-2.52953 1.12424,-2.52953 1.08408,0 4.05528,0.602269 3.2924,0.722723 3.2924,1.284841 z m -10.23857,16.783232 q 0,-4.93861 -2.93104,-8.47192 -3.09165,-3.81437 -7.9098,-3.81437 -4.81816,0 -8.03026,3.77422 -3.09165,3.61361 -3.09165,8.51207 0,4.8583 3.09165,8.43176 3.2121,3.73407 8.03026,3.73407 4.69769,0 7.86964,-3.81437 2.9712,-3.57346 2.9712,-8.35146 z m 47.0777,-16.863535 q 0,0.883328 -0.92348,3.934825 -0.92348,3.0515 -1.28484,3.0515 -1.80681,-0.80303 -3.65376,-1.60606 -1.80681,-0.80302 -3.97498,-0.80302 -4.93861,0 -8.23101,3.65376 -3.2924,3.65377 -3.2924,8.63253 0,4.89845 3.2924,8.47192 3.37271,3.69391 8.23101,3.69391 2.69013,0 5.29997,-1.32499 2.60983,-1.32499 2.28862,-1.32499 0.52197,0 1.16439,3.3727 0.60227,3.0515 0.60227,4.21589 0,1.24469 -4.6977,2.44923 -3.93483,1.00378 -5.82194,1.00378 -8.27116,0 -13.97264,-6.1833 -5.58102,-6.02269 -5.58102,-14.37415 0,-8.51207 5.46057,-14.45446 5.62118,-6.102992 14.01279,-6.102992 5.62118,0 10.27873,2.85074 0.80302,0.481816 0.80302,0.843177 z m 41.29595,14.855965 q 0,2.9712 -2.56968,3.97498 -1.7265,0.64242 -24.85363,2.36892 0.52197,3.53332 3.89467,6.02269 3.2121,2.36893 6.90602,2.36893 6.3439,0 11.64387,-4.09543 0.64242,-0.52197 1.28484,-1.04393 0.32121,0 0.40151,0.0803 0.12045,0.0803 1.52575,2.81059 1.40529,2.69013 1.40529,2.89089 0,0.24091 -0.64242,0.92348 -5.90223,6.2636 -15.13702,6.2636 -9.3151,0 -14.85597,-5.54088 -5.54088,-5.58102 -5.54088,-14.85597 0,-8.27116 5.29997,-14.4143 5.58102,-6.384054 13.69158,-6.384054 7.54844,0 12.6075,5.540875 4.9386,5.380269 4.9386,13.089309 z m -9.556,-2.44922 q 0,-3.33256 -2.64998,-5.90224 -2.60983,-2.56968 -5.90224,-2.56968 -3.69391,0 -6.58481,2.97119 -2.85074,2.9712 -2.85074,6.66511 0,0.84318 1.44545,0.84318 5.94239,0 14.21355,-1.20454 2.32877,-0.32121 2.32877,-0.80302 z"
       id="text1"
       aria-label="SafeSpace" /></g></svg>
