<?xml version="1.0" encoding="UTF-8" standalone="no"?>
<!-- Created with Inkscape (http://www.inkscape.org/) -->

<svg
   width="74.4524mm"
   height="135.38234mm"
   viewBox="0 0 74.452403 135.38234"
   version="1.1"
   id="svg1"
   inkscape:version="1.3 (0e150ed6c4, 2023-07-21)"
   sodipodi:docname="safe-space-logo-signup.svg"
   xml:space="preserve"
   inkscape:export-filename="safe-space-logo-login.svg"
   inkscape:export-xdpi="96"
   inkscape:export-ydpi="96"
   xmlns:inkscape="http://www.inkscape.org/namespaces/inkscape"
   xmlns:sodipodi="http://sodipodi.sourceforge.net/DTD/sodipodi-0.dtd"
   xmlns="http://www.w3.org/2000/svg"
   xmlns:svg="http://www.w3.org/2000/svg"><sodipodi:namedview
     id="namedview1"
     pagecolor="#3f3f3f"
     bordercolor="#000000"
     borderopacity="0.25"
     inkscape:showpageshadow="2"
     inkscape:pageopacity="0.0"
     inkscape:pagecheckerboard="0"
     inkscape:deskcolor="#4e4e4e"
     inkscape:document-units="mm"
     inkscape:zoom="0.52221046"
     inkscape:cx="1887.1702"
     inkscape:cy="539.05469"
     inkscape:window-width="1920"
     inkscape:window-height="1046"
     inkscape:window-x="-11"
     inkscape:window-y="-11"
     inkscape:window-maximized="1"
     inkscape:current-layer="layer1" /><defs
     id="defs1" /><g
     inkscape:label="Layer 1"
     inkscape:groupmode="layer"
     id="layer1"
     transform="translate(-436.48027,-635.2153)"><path
       style="fill:#ffffff"
       d="m 501.75545,770.19346 c -1.03789,-0.35396 -5.22192,-4.4327 -32.61609,-31.79526 -21.28054,-21.25598 -31.59357,-31.73496 -31.94617,-32.46025 -0.79148,-1.62802 -0.92042,-3.23493 -0.40444,-5.04033 l 0.44628,-1.56154 31.40032,-31.42547 c 23.05823,-23.0767 31.71281,-31.57733 32.57658,-31.99711 5.76962,-2.8039 11.8528,3.36567 8.99002,9.1177 -0.38522,0.774 -9.3805,9.95324 -28.9084,29.4996 l -28.34917,28.37597 28.46641,28.50945 c 18.54672,18.57475 28.61943,28.8476 28.90553,29.47984 1.62454,3.59006 -0.09,7.85535 -3.70069,9.20629 -1.68256,0.62952 -3.19813,0.65793 -4.86018,0.0911 z"
       id="path1" /></g></svg>
