<?xml version="1.0" encoding="UTF-8" standalone="no"?>
<!-- Created with Inkscape (http://www.inkscape.org/) -->

<svg
   width="784.2309mm"
   height="120.10709mm"
   viewBox="0 0 784.23093 120.10709"
   version="1.1"
   id="svg1"
   inkscape:version="1.3 (0e150ed6c4, 2023-07-21)"
   sodipodi:docname="safe-space-logo-signup.svg"
   xml:space="preserve"
   inkscape:export-filename="safe-space-logo-login.svg"
   inkscape:export-xdpi="96"
   inkscape:export-ydpi="96"
   xmlns:inkscape="http://www.inkscape.org/namespaces/inkscape"
   xmlns:sodipodi="http://sodipodi.sourceforge.net/DTD/sodipodi-0.dtd"
   xmlns="http://www.w3.org/2000/svg"
   xmlns:svg="http://www.w3.org/2000/svg"><sodipodi:namedview
     id="namedview1"
     pagecolor="#3f3f3f"
     bordercolor="#000000"
     borderopacity="0.25"
     inkscape:showpageshadow="2"
     inkscape:pageopacity="0.0"
     inkscape:pagecheckerboard="0"
     inkscape:deskcolor="#4e4e4e"
     inkscape:document-units="mm"
     inkscape:zoom="0.52221046"
     inkscape:cx="1887.1702"
     inkscape:cy="539.05469"
     inkscape:window-width="1920"
     inkscape:window-height="1046"
     inkscape:window-x="-11"
     inkscape:window-y="-11"
     inkscape:window-maximized="1"
     inkscape:current-layer="layer1" /><defs
     id="defs1" /><g
     inkscape:label="Layer 1"
     inkscape:groupmode="layer"
     id="layer1"
     transform="translate(-178.73959,-283.42166)"><path
       style="fill:#000000"
       d="m 579.36089,403.13278 c -2.07299,-0.7603 -4.02023,-2.60495 -4.92115,-4.66186 -1.01681,-2.32151 -0.97893,-2.92078 0.92435,-14.6241 l 1.78917,-11.00165 -1.36218,-1.34794 c -0.77008,-0.76203 -1.73719,-2.10925 -2.22494,-3.09942 -0.82571,-1.67626 -0.86667,-1.90707 -0.9538,-5.37504 -0.0967,-3.84818 0.18802,-5.49072 1.34476,-7.75811 0.86254,-1.69072 3.32261,-3.91314 5.2713,-4.76208 l 1.71235,-0.74599 0.74745,-4.6586 c 0.41109,-2.56224 1.01884,-5.61059 1.35054,-6.77411 0.33169,-1.16353 0.58272,-2.12706 0.55782,-2.14118 -0.0249,-0.0141 -1.05683,-0.37184 -2.29319,-0.79492 -5.82074,-1.99184 -10.59969,-6.2211 -13.35539,-11.81921 -2.85232,-5.79439 -3.24637,-11.84928 -1.17375,-18.03562 4.47411,-13.35435 19.98688,-19.78297 32.5736,-13.49877 l 1.77361,0.88551 2.59243,-2.5662 c 4.81102,-4.76233 10.00204,-6.93182 16.58606,-6.93182 6.55392,0 11.91725,2.23047 16.56266,6.88798 2.66701,2.67396 3.73158,4.23623 5.16511,7.57982 1.20314,2.80624 1.7163,5.5472 1.7163,9.16733 0,4.46467 -1.04956,8.21552 -3.44273,12.30343 l -0.82572,1.41044 5.24308,-0.21982 c 2.88369,-0.1209 7.44868,-0.21981 10.14442,-0.21981 h 4.90135 l 1.73327,0.85377 c 2.13429,1.05131 4.48728,3.43399 5.43456,5.50312 2.04667,4.47053 1.13265,9.5956 -2.3286,13.05685 -1.35906,1.35906 -3.88301,2.78938 -5.48891,3.11056 -0.98526,0.19705 -0.98099,0.12719 -0.28947,4.72779 0.97451,6.4833 0.5954,9.68742 -1.53649,12.98587 -1.10227,1.7054 -3.11679,3.63447 -4.48278,4.29261 -0.61276,0.29524 -0.8599,0.59505 -0.8599,1.0432 0,0.3459 0.66308,6.72345 1.47352,14.17235 1.66655,15.31781 1.70385,16.72859 0.50063,18.93929 -0.97404,1.78964 -2.68906,3.3012 -4.52484,3.98805 -1.41919,0.53099 -1.87764,0.53775 -35.2285,0.51935 -28.35875,-0.0157 -33.95382,-0.0785 -34.806,-0.39107 z m 68.76953,-4.06078 c 0.59352,-0.26956 1.33089,-0.81017 1.63859,-1.20134 1.27286,-1.61819 1.27497,-1.517 -0.34637,-16.62671 -0.83106,-7.74491 -1.5617,-14.1372 -1.62363,-14.20508 -0.1611,-0.17657 -11.56191,3.64098 -12.03991,4.03156 -0.31912,0.26076 -0.59181,2.97238 -1.37633,13.68664 -0.5381,7.34881 -0.97367,13.68888 -0.96793,14.08907 l 0.0104,0.7276 6.81302,-0.006 c 6.05954,-0.005 6.93236,-0.06 7.89214,-0.49593 z m -61.64506,-29.12961 c 1.32105,-0.56627 2.8124,-2.01723 3.61258,-3.51474 0.53183,-0.99528 0.59711,-1.49349 0.59711,-4.55703 0,-3.78603 -0.19581,-4.45197 -1.81556,-6.17474 -1.4066,-1.49605 -2.67674,-2.01507 -4.93132,-2.01507 -2.96184,0 -5.05235,1.24385 -6.47089,3.85017 -0.64681,1.1884 -0.77624,1.77178 -0.88245,3.97741 -0.0744,1.54508 10e-4,3.08422 0.1882,3.82647 1.0652,4.2303 5.58031,6.37448 9.70233,4.60753 z m 52.27256,-4.36008 c 11.63105,-3.92335 12.84207,-4.45208 14.39062,-6.28313 1.02315,-1.20978 1.96391,-3.36289 2.14781,-4.91561 0.12724,-1.07435 -0.82129,-9.46833 -1.10675,-9.79418 -0.0402,-0.0458 -5.23457,1.59977 -11.54315,3.65688 -6.30858,2.0571 -13.13702,4.28369 -15.17431,4.94797 -4.53409,1.4784 -5.8783,2.13454 -7.00733,3.42043 -3.71479,4.23091 -2.14197,10.54799 3.09095,12.41453 2.28872,0.81637 3.12663,0.62638 15.20216,-3.44689 z m -52.2951,-34.27265 c 1.17429,-1.69451 4.40483,-4.60404 6.4825,-5.83836 2.17238,-1.29059 5.43799,-2.52279 7.36262,-2.7781 1.99569,-0.26474 2.07562,-0.40311 1.02669,-1.77728 -3.43095,-4.49477 -5.15,-10.86467 -4.45603,-16.51166 0.26086,-2.12262 1.0662,-5.12724 2.02585,-7.55819 0.15029,-0.38072 -0.14599,-0.61586 -1.61567,-1.28225 -3.16516,-1.43515 -5.61917,-1.90973 -9.1006,-1.75995 -5.23669,0.22529 -9.28195,2.01811 -12.97126,5.74873 -2.28156,2.3071 -3.46951,4.18421 -4.58253,7.24091 -0.6714,1.84389 -0.80476,2.64833 -0.91011,5.49005 -0.10311,2.78118 -0.0328,3.68809 0.42696,5.50613 1.41927,5.61245 5.11306,10.21414 10.22506,12.73827 1.70175,0.84027 4.1988,1.71802 5.18953,1.82421 0.0893,0.01 0.493,-0.45955 0.89699,-1.04251 z"
       id="path2-6-4"
       inkscape:export-filename="safe-space-logo-signup.svg"
       inkscape:export-xdpi="96"
       inkscape:export-ydpi="96" /><path
       style="font-size:82.2298px;font-family:'Berlin Sans FB';-inkscape-font-specification:'Berlin Sans FB, Normal';letter-spacing:2.2689px;word-spacing:2.2689px;fill:#000000;fill-rule:evenodd;stroke-width:12.8635"
       d="m 210.61968,322.89847 c -0.53535,0.88332 -1.27145,2.2217 -2.20832,4.01512 -0.29444,0.8298 -0.81641,2.00757 -1.5659,3.53331 -0.1606,0.24091 -0.37474,0.36137 -0.64242,0.36137 0.0268,0 -1.27142,-0.46844 -3.89467,-1.4053 -2.59645,-0.96363 -4.73785,-1.44544 -6.4242,-1.44544 -4.92523,0 -7.38784,2.16816 -7.38784,6.5045 0,2.40908 1.72651,4.51033 5.17952,6.30375 5.80855,3.02473 9.02065,4.76461 9.6363,5.21966 3.45301,2.75705 5.17952,6.47774 5.17952,11.16206 0,5.99592 -2.36893,10.72038 -7.10678,14.17339 -4.25603,3.10503 -9.48908,4.65755 -15.69914,4.65755 -2.89089,0 -4.44341,-0.32121 -4.65755,-0.96363 -0.10707,-1.01717 -0.34798,-2.50276 -0.72272,-4.45679 -0.21414,-0.80303 -0.54874,-2.00756 -1.00379,-3.61361 -0.0803,-0.24091 -0.12045,-0.46844 -0.12045,-0.68258 0,-0.37474 0.20076,-0.56211 0.60227,-0.56211 0.64242,0 1.61943,0.0669 2.93104,0.20075 1.33837,0.13384 2.34216,0.20076 3.01135,0.20076 8.29793,0 12.44689,-2.67675 12.44689,-8.03025 0,-2.62322 -1.67297,-4.89846 -5.01891,-6.82572 -6.10299,-3.47978 -9.22141,-5.28659 -9.35524,-5.42042 -3.37271,-2.73029 -5.05906,-6.39743 -5.05906,-11.00145 0,-4.97875 1.63282,-8.96711 4.89845,-11.96508 3.18533,-2.89089 7.30753,-4.33633 12.36659,-4.33633 2.1414,0 4.60401,0.34798 7.38783,1.04393 3.02473,0.77626 5.29997,1.71312 6.82572,2.81059 0.13384,0.10707 0.26768,0.28106 0.40151,0.52197 z m 47.43908,15.94005 c 0,0.10707 -0.0401,0.34798 -0.12046,0.72272 -1.04393,6.12976 -1.5659,11.41634 -1.5659,15.85975 0,0.26767 0.3346,6.27698 1.00379,18.02792 l 0.0402,0.56212 c 0.0267,0.77626 -0.33463,1.16439 -1.08409,1.16439 -0.72272,0 -1.83357,0.0803 -3.33255,0.2409 -1.47221,0.18737 -2.56968,0.28106 -3.29241,0.28106 -0.50858,0 -0.89671,-0.93686 -1.16438,-2.81059 -0.26768,-1.87373 -0.52197,-2.81059 -0.76288,-2.81059 -0.1606,0 -0.88332,0.52197 -2.16816,1.5659 -1.57929,1.28484 -3.0515,2.26186 -4.41664,2.93105 -2.11463,1.0707 -4.22927,1.60605 -6.3439,1.60605 -5.1929,0 -9.56939,-2.07448 -13.12947,-6.22345 -3.37271,-3.96159 -5.05906,-8.57899 -5.05906,-13.85219 0,-5.94239 1.69974,-10.85422 5.09921,-14.73551 3.56008,-4.04189 8.2444,-6.06284 14.05295,-6.06284 4.09543,0 7.66889,1.41868 10.72038,4.25603 0.45505,0.53535 1.16439,1.31161 2.12802,2.32877 0.0803,0.0803 0.16061,0.12046 0.24091,0.12046 0.16061,0 0.38813,-0.84318 0.68257,-2.52953 0.29444,-1.68635 0.66919,-2.52953 1.12424,-2.52953 0.72272,0 2.07448,0.20076 4.05527,0.60227 2.19494,0.48181 3.29241,0.91009 3.29241,1.28484 z m -10.23858,16.78323 c 0,-3.29241 -0.97701,-6.11638 -2.93104,-8.47192 -2.0611,-2.54291 -4.6977,-3.81437 -7.9098,-3.81437 -3.2121,0 -5.88885,1.25807 -8.03025,3.77422 -2.0611,2.40907 -3.09165,5.24643 -3.09165,8.51207 0,3.23887 1.03055,6.04945 3.09165,8.43176 2.1414,2.48938 4.81815,3.73407 8.03025,3.73407 3.1318,0 5.75502,-1.27146 7.86965,-3.81437 1.98079,-2.38231 2.97119,-5.16613 2.97119,-8.35146 z m 39.77019,-31.92026 c 0,0.32121 -0.24091,0.50858 -0.72272,0.56212 -1.31161,0.13384 -2.60983,0.25429 -3.89467,0.36136 -1.52575,0.21414 -2.69014,0.74949 -3.49316,1.60605 -1.31161,1.41868 -1.96742,5.01891 -1.96742,10.80069 0.88333,0 2.27524,0.0268 4.17573,0.0803 1.90049,0.0535 3.33256,0.0803 4.29619,0.0803 0.64242,0 0.96363,0.24091 0.96363,0.72272 0,0.74949 0.0268,1.87373 0.0803,3.3727 0.0535,1.47221 0.0803,2.56968 0.0803,3.29241 0,0.50858 -0.26768,0.76287 -0.80303,0.76287 -0.93686,0 -2.35554,-0.0402 -4.25603,-0.12045 -1.90049,-0.10707 -3.30579,-0.16061 -4.21589,-0.16061 v 12.00523 c 0,1.87373 0.0669,4.71108 0.20076,8.51207 0.13384,3.80099 0.20076,6.63834 0.20076,8.51207 0,0.72273 -0.26768,1.08409 -0.80303,1.08409 h -7.34768 c -0.69595,0 -1.04393,-0.4149 -1.04393,-1.24469 v -27.62408 c 0,-0.72272 -0.81641,-1.0707 -2.44923,-1.04393 -1.76666,0.0267 -2.70352,-0.0402 -2.81059,-0.20076 -0.0803,-0.0803 -0.12045,-0.5755 -0.12045,-1.48559 0,-0.58889 -0.0268,-1.45883 -0.0803,-2.60983 -0.0535,-1.17777 -0.0803,-2.0611 -0.0803,-2.64998 0,-0.56212 1.69974,-0.93687 5.09921,-1.12424 -0.0803,-1.71312 -0.12045,-3.10503 -0.12045,-4.17573 0,-4.73785 0.84318,-8.20424 2.52953,-10.39918 1.49898,-1.9808 3.69392,-3.53331 6.58481,-4.65755 2.59645,-1.01716 5.28658,-1.52574 8.0704,-1.52574 0.26767,0 0.45505,0.14722 0.56212,0.44166 0.0267,0.0535 0.25426,1.19115 0.68257,3.41286 0.45505,2.19493 0.68257,3.33255 0.68257,3.41285 z m 39.73004,29.91269 c 0,1.9808 -0.85656,3.30579 -2.56969,3.97498 -1.151,0.42828 -9.43554,1.21792 -24.85363,2.36892 0.34798,2.35555 1.6462,4.36311 3.89467,6.02269 2.1414,1.57929 4.44341,2.36893 6.90602,2.36893 4.22927,0 8.11056,-1.36514 11.64387,-4.09543 0.42828,-0.34798 0.85656,-0.69596 1.28484,-1.04393 0.21414,0 0.34798,0.0268 0.40151,0.0803 0.0803,0.0535 0.58889,0.9904 1.52575,2.81059 0.93686,1.79342 1.40529,2.75705 1.40529,2.89089 0,0.16061 -0.21414,0.46843 -0.64242,0.92348 -3.93482,4.17573 -8.98049,6.2636 -15.13702,6.2636 -6.21007,0 -11.16206,-1.84696 -14.85597,-5.54088 -3.69392,-3.72068 -5.54088,-8.67267 -5.54088,-14.85597 0,-5.51411 1.76666,-10.31887 5.29997,-14.4143 3.72069,-4.25603 8.28455,-6.38405 13.69158,-6.38405 5.03229,0 9.23479,1.84696 12.6075,5.54087 3.29241,3.58685 4.93861,7.94995 4.93861,13.08931 z m -9.55601,-2.44922 c 0,-2.22171 -0.88333,-4.18912 -2.64998,-5.90224 -1.73989,-1.71312 -3.7073,-2.56968 -5.90224,-2.56968 -2.46261,0 -4.65754,0.9904 -6.5848,2.97119 -1.90049,1.9808 -2.85074,4.2025 -2.85074,6.66511 0,0.56212 0.48181,0.84318 1.44544,0.84318 3.96159,0 8.69944,-0.40151 14.21355,-1.20454 1.55251,-0.21414 2.32877,-0.48181 2.32877,-0.80302 z m 49.68756,-28.26649 c -0.53535,0.88332 -1.27146,2.2217 -2.20832,4.01512 -0.29445,0.8298 -0.81641,2.00757 -1.5659,3.53331 -0.16061,0.24091 -0.37475,0.36137 -0.64242,0.36137 0.0267,0 -1.27149,-0.46844 -3.89467,-1.4053 -2.59645,-0.96363 -4.73786,-1.44544 -6.42421,-1.44544 -4.92522,0 -7.38783,2.16816 -7.38783,6.5045 0,2.40908 1.7265,4.51033 5.17951,6.30375 5.80855,3.02473 9.02066,4.76461 9.63631,5.21966 3.45301,2.75705 5.17951,6.47774 5.17951,11.16206 0,5.99592 -2.36892,10.72038 -7.10677,14.17339 -4.25604,3.10503 -9.48909,4.65755 -15.69915,4.65755 -2.89089,0 -4.44341,-0.32121 -4.65755,-0.96363 -0.10707,-1.01717 -0.34797,-2.50276 -0.72272,-4.45679 -0.21414,-0.80303 -0.54873,-2.00756 -1.00378,-3.61361 -0.0803,-0.24091 -0.12045,-0.46844 -0.12045,-0.68258 0,-0.37474 0.20075,-0.56211 0.60226,-0.56211 0.64242,0 1.61944,0.0669 2.93105,0.20075 1.33837,0.13384 2.34215,0.20076 3.01134,0.20076 8.29793,0 12.4469,-2.67675 12.4469,-8.03025 0,-2.62322 -1.67297,-4.89846 -5.01891,-6.82572 -6.10299,-3.47978 -9.22141,-5.28659 -9.35525,-5.42042 -3.37271,-2.73029 -5.05906,-6.39743 -5.05906,-11.00145 0,-4.97875 1.63282,-8.96711 4.89846,-11.96508 3.18533,-2.89089 7.30753,-4.33633 12.36659,-4.33633 2.1414,0 4.60401,0.34798 7.38783,1.04393 3.02473,0.77626 5.29997,1.71312 6.82572,2.81059 0.13383,0.10707 0.26767,0.28106 0.40151,0.52197 z m 48.5633,32.96419 c 0,5.40703 -1.71312,10.10473 -5.13936,14.09309 -3.58685,4.2025 -8.04364,6.30375 -13.37037,6.30375 -3.31917,0 -6.22345,-1.03055 -8.71283,-3.09165 -1.12423,-1.04393 -2.24847,-2.10125 -3.3727,-3.17195 -0.16061,0.0803 -0.26768,0.29445 -0.32122,0.64242 -0.0268,0.16061 -0.0402,1.65959 -0.0402,4.49694 l -0.0401,11.32266 c 0,0.85656 -0.30783,1.28484 -0.92348,1.28484 -4.12219,0 -6.55804,-0.0535 -7.30753,-0.1606 -0.61565,-0.0803 -0.92348,-0.42829 -0.92348,-1.04394 0,-3.42624 0.0268,-8.5656 0.0803,-15.41808 0.0535,-6.85249 0.0803,-11.99185 0.0803,-15.41809 0,-6.29037 -0.40151,-12.1926 -1.20454,-17.70671 -0.0535,-0.32121 -0.0803,-0.53535 -0.0803,-0.64242 0,-0.29444 0.13384,-0.48181 0.40151,-0.56212 1.01717,-0.0535 2.50276,-0.20075 4.45679,-0.44166 2.62322,-0.48181 4.09543,-0.72272 4.41664,-0.72272 0.45505,0 0.74949,0.80302 0.88333,2.40907 0.0803,1.0707 0.14722,2.12802 0.20075,3.17195 0,0.21414 0.0803,0.42828 0.24091,0.64242 0.18737,-0.10707 0.40151,-0.29444 0.64242,-0.56212 3.74745,-3.82775 7.53506,-5.74162 11.36281,-5.74162 5.29997,0 9.77014,2.07448 13.41053,6.22344 3.50654,3.98836 5.25981,8.68606 5.25981,14.0931 z m -9.3954,-0.16061 c 0,-3.2121 -1.00378,-6.03607 -3.01134,-8.47192 -2.11463,-2.59645 -4.75123,-3.89467 -7.9098,-3.89467 -3.10503,0 -5.64795,1.33838 -7.62874,4.01513 -1.82019,2.40907 -2.73029,5.21966 -2.73029,8.43176 0,3.26564 0.93686,6.103 2.81059,8.51207 2.0611,2.59645 4.68432,3.89467 7.86965,3.89467 3.05149,0 5.62117,-1.35176 7.70904,-4.05527 1.92726,-2.51615 2.89089,-5.32674 2.89089,-8.43177 z m 56.91478,-16.86353 c 0,0.10707 -0.0401,0.34798 -0.12045,0.72272 -1.04393,6.12976 -1.5659,11.41634 -1.5659,15.85975 0,0.26767 0.33459,6.27698 1.00378,18.02792 l 0.0401,0.56212 c 0.0267,0.77626 -0.33463,1.16439 -1.08408,1.16439 -0.72273,0 -1.83358,0.0803 -3.33256,0.2409 -1.47221,0.18737 -2.56968,0.28106 -3.2924,0.28106 -0.50859,0 -0.89672,-0.93686 -1.16439,-2.81059 -0.26767,-1.87373 -0.52196,-2.81059 -0.76287,-2.81059 -0.16061,0 -0.88333,0.52197 -2.16817,1.5659 -1.57929,1.28484 -3.0515,2.26186 -4.41664,2.93105 -2.11463,1.0707 -4.22927,1.60605 -6.3439,1.60605 -5.1929,0 -9.56939,-2.07448 -13.12947,-6.22345 -3.37271,-3.96159 -5.05906,-8.57899 -5.05906,-13.85219 0,-5.94239 1.69974,-10.85422 5.09922,-14.73551 3.56007,-4.04189 8.24439,-6.06284 14.05294,-6.06284 4.09543,0 7.66889,1.41868 10.72039,4.25603 0.45505,0.53535 1.16438,1.31161 2.12801,2.32877 0.0803,0.0803 0.16061,0.12046 0.24091,0.12046 0.16061,0 0.38813,-0.84318 0.68257,-2.52953 0.29445,-1.68635 0.66919,-2.52953 1.12424,-2.52953 0.72272,0 2.07448,0.20076 4.05528,0.60227 2.19493,0.48181 3.2924,0.91009 3.2924,1.28484 z m -10.23857,16.78323 c 0,-3.29241 -0.97701,-6.11638 -2.93104,-8.47192 -2.0611,-2.54291 -4.6977,-3.81437 -7.9098,-3.81437 -3.21211,0 -5.88886,1.25807 -8.03026,3.77422 -2.0611,2.40907 -3.09165,5.24643 -3.09165,8.51207 0,3.23887 1.03055,6.04945 3.09165,8.43176 2.1414,2.48938 4.81815,3.73407 8.03026,3.73407 3.13179,0 5.75501,-1.27146 7.86964,-3.81437 1.9808,-2.38231 2.9712,-5.16613 2.9712,-8.35146 z m 47.0777,-16.86353 c 0,0.58888 -0.30783,1.90049 -0.92348,3.93482 -0.61565,2.03433 -1.04393,3.0515 -1.28484,3.0515 -1.20454,-0.53535 -2.42246,-1.07071 -3.65376,-1.60606 -1.20454,-0.53535 -2.52953,-0.80302 -3.97498,-0.80302 -3.29241,0 -6.03608,1.21792 -8.23101,3.65376 -2.19493,2.43585 -3.2924,5.31336 -3.2924,8.63253 0,0.61412 0.0388,1.21263 0.11644,1.79551 0.33514,2.51664 1.3938,4.74211 3.17596,6.67641 2.24847,2.46261 4.99214,3.69391 8.23101,3.69391 1.79342,0 3.56008,-0.44166 5.29997,-1.32499 1.73989,-0.88333 2.50276,-1.32499 2.28862,-1.32499 0.34798,0 0.73611,1.12423 1.16439,3.3727 0.40151,2.03433 0.60227,3.43963 0.60227,4.21589 0,0.82979 -1.5659,1.6462 -4.6977,2.44923 -2.62322,0.66919 -4.56387,1.00378 -5.82194,1.00378 -5.51411,0 -10.17165,-2.0611 -13.97264,-6.1833 -3.72068,-4.01513 -5.58102,-8.80651 -5.58102,-14.37415 0,-5.67471 1.82019,-10.49287 5.46057,-14.45446 3.74745,-4.06866 8.41838,-6.10299 14.01279,-6.10299 3.74745,0 7.1737,0.95025 10.27873,2.85074 0.53535,0.32121 0.80302,0.60227 0.80302,0.84318 z m 41.29595,14.85596 c 0,1.9808 -0.85656,3.30579 -2.56968,3.97498 -1.151,0.42828 -9.43554,1.21792 -24.85363,2.36892 0.34798,2.35555 1.6462,4.36311 3.89467,6.02269 2.1414,1.57929 4.44341,2.36893 6.90602,2.36893 4.22927,0 8.11056,-1.36514 11.64387,-4.09543 0.42828,-0.34798 0.85656,-0.69596 1.28484,-1.04393 0.21414,0 0.34798,0.0268 0.40151,0.0803 0.0803,0.0535 0.58888,0.9904 1.52575,2.81059 0.93686,1.79342 1.40529,2.75705 1.40529,2.89089 0,0.16061 -0.21414,0.46843 -0.64242,0.92348 -3.93482,4.17573 -8.98049,6.2636 -15.13702,6.2636 -6.21007,0 -11.16206,-1.84696 -14.85597,-5.54088 -3.69392,-3.72068 -5.54088,-8.67267 -5.54088,-14.85597 0,-5.51411 1.76666,-10.31887 5.29997,-14.4143 3.72068,-4.25603 8.28454,-6.38405 13.69158,-6.38405 5.03229,0 9.23479,1.84696 12.6075,5.54087 3.2924,3.58685 4.9386,7.94995 4.9386,13.08931 z m -9.556,-2.44922 c 0,-2.22171 -0.88333,-4.18912 -2.64998,-5.90224 -1.73989,-1.71312 -3.7073,-2.56968 -5.90224,-2.56968 -2.46261,0 -4.65754,0.9904 -6.58481,2.97119 -1.90049,1.9808 -2.85074,4.2025 -2.85074,6.66511 0,0.56212 0.48182,0.84318 1.44545,0.84318 3.96159,0 8.69944,-0.40151 14.21355,-1.20454 1.55251,-0.21414 2.32877,-0.48181 2.32877,-0.80302 z"
       id="text1-5"
       aria-label="SafeSpace"
       sodipodi:nodetypes="cccccssccscscccsscssccscscccccsccscsssccscscsccssscccscscscscssccccssscssccsssssssccscscsccsccssscccsccccscscscscsscscsscscccccssccscscccsscssccscscccscscccccscssscsccsccccscssscscscscsscsccscsssccscscsccssscssscscscscsssccsssscssccscscscscsscccsccccscscscscsscscsscs" /><path
       d="m 707.9777,330.90906 q -0.81226,1.34023 -2.23372,4.0613 -0.44674,1.25901 -1.58391,3.57395 -0.24368,0.36552 -0.64981,0.36552 0.0406,0 -3.93946,-1.42146 -3.93946,-1.46207 -6.49809,-1.46207 -7.47279,0 -7.47279,6.57931 0,3.65518 5.23908,6.37625 8.81303,4.58927 9.74713,5.27969 5.23908,4.18315 5.23908,11.29043 0,9.09732 -7.18851,14.3364 -6.45747,4.71111 -15.8797,4.71111 -4.38621,0 -4.71111,-0.97471 -0.16245,-1.5433 -0.73103,-4.50805 -0.32491,-1.21839 -1.01533,-3.65517 -0.12184,-0.36552 -0.12184,-0.69042 0,-0.56859 0.6092,-0.56859 0.97471,0 2.96475,0.20307 2.03065,0.20307 3.04598,0.20307 12.59004,0 12.59004,-8.12261 0,-3.98008 -5.07663,-6.90422 -9.25977,-5.27969 -9.46284,-5.48276 -5.11724,-4.14253 -5.11724,-11.12797 0,-7.55403 4.95479,-12.10269 4.83295,-4.3862 12.50881,-4.3862 3.24905,0 7.4728,1.05594 4.58928,1.17777 6.90422,2.84291 0.20306,0.16245 0.40613,0.52797 z m 17.43344,4.30498 q 0,4.9954 -5.56398,4.9954 -5.64521,0 -5.64521,-4.9954 0,-2.23372 1.74636,-3.69579 1.62452,-1.38084 3.89885,-1.38084 2.27433,0 3.89885,1.42146 1.66513,1.42145 1.66513,3.65517 z m -0.28429,11.00613 q 0,3.12721 -0.40613,9.46284 -0.36552,6.29502 -0.36552,9.46284 0,2.96475 0.12184,8.89425 0.12184,5.88889 0.12184,8.81303 0,0.85288 -0.73103,0.85288 h -7.91954 q -0.85288,0 -0.85288,-1.66514 0,-2.8023 0.12184,-8.4069 0.16245,-5.64521 0.16245,-8.48812 0,-3.16782 -0.48735,-9.50345 -0.44675,-6.33564 -0.44675,-9.50345 0,-0.69043 0.85288,-0.69043 0.73103,0 2.23371,0.20307 1.5433,0.20307 2.31495,0.20307 0.77165,0 2.27433,-0.20307 1.54329,-0.20307 2.31494,-0.20307 0.69042,0 0.69042,0.77165 z m 44.48173,-0.28429 q 0,4.87357 -0.0812,14.66131 -0.0812,9.74713 -0.0812,14.62069 0,9.6659 -4.14253,14.25518 -4.3456,4.87356 -13.88966,4.87356 -9.21916,0 -14.90499,-3.49272 -0.89348,-0.56858 -0.89348,-0.97471 0,0.44674 1.21839,-6.01073 0.12184,-0.69042 0.56858,-0.69042 0.20306,0 0.52797,0.20306 6.09195,3.49272 12.22452,3.49272 4.02069,0 6.66054,-1.78697 3.04598,-2.03065 3.04598,-5.88889 0,-0.85288 -0.16245,-3.81763 -4.50805,5.48276 -11.45288,5.48276 -7.51341,0 -12.34636,-5.40153 -4.62989,-5.19847 -4.62989,-12.79311 0,-7.71647 4.46744,-13.11801 4.75172,-5.76705 12.34636,-5.76705 6.70115,0 10.64061,5.15786 0.64981,0.85287 0.9341,0.85287 0.32491,0 0.32491,-0.73103 0,-0.52797 -0.0812,-1.66514 -0.0812,-1.17778 -0.0812,-1.74636 0,-2.43678 0.48735,-2.43678 0.40613,0 4.38621,0.77165 3.98008,0.73103 4.3456,0.89348 0.56858,0.20307 0.56858,1.05594 z m -9.74713,16.73257 q 0,-4.54866 -2.4774,-7.71647 -2.72107,-3.45211 -7.14789,-3.45211 -4.38621,0 -7.10728,3.49272 -2.4774,3.16782 -2.4774,7.67586 0,4.42682 2.51801,7.63525 2.72107,3.49272 7.06667,3.49272 4.30498,0 7.06667,-3.49272 2.55862,-3.20843 2.55862,-7.63525 z m 53.66028,20.30652 q 0,0.89349 -0.81226,0.89349 -1.34023,0 -4.02069,-0.0406 -2.63985,-0.0406 -3.98008,-0.0406 -0.73104,0 -0.73104,-1.17778 0,-1.99004 0.12184,-6.05134 0.12184,-4.0613 0.12184,-6.09195 0,-1.62453 -0.0406,-4.83296 -0.0406,-3.24904 -0.0406,-4.87356 0,-4.62989 -1.34023,-6.5387 -1.62452,-2.27433 -6.01073,-2.27433 -2.03065,0 -5.64521,2.27433 -3.81763,2.39617 -3.81763,4.26437 v 24.36782 q 0,1.01533 -0.77165,1.01533 -1.29962,0 -3.89885,-0.0406 -2.59923,-0.0406 -3.89885,-0.0406 -0.85287,0 -0.85287,-0.9341 0,-3.20843 0.0812,-9.62529 0.12184,-6.41686 0.12184,-9.6659 0,-8.65058 -1.82759,-15.96092 -0.12184,-0.36552 -0.12184,-0.52797 0,-0.40613 0.52797,-0.56859 0.2843,-0.0406 4.62989,-0.73103 4.38621,-0.73104 4.58927,-0.73104 0.24368,0 0.32491,0.64981 0.20306,2.51801 0.9341,5.07663 2.11188,-1.66513 5.56398,-4.14253 4.26437,-2.59923 8.24445,-2.59923 7.63525,0 10.43755,4.42682 2.07127,3.24904 2.07127,10.51878 0,1.259 -0.0812,3.85823 -0.0406,2.59924 -0.0406,3.89886 0,2.72107 0.0812,8.1226 0.0812,5.40154 0.0812,8.12261 z m 77.1149,-55.27434 q 0,4.71111 -0.40613,14.13333 -0.36552,9.38162 -0.36552,14.09273 0,1.54329 0.0406,4.62988 0.0406,3.04598 0.0406,4.54866 0,8.48813 -1.5839,11.77779 -2.43679,5.03601 -9.46284,6.82299 -4.30498,1.09655 -12.1433,1.09655 -14.21456,0 -18.64138,-4.71111 -3.4115,-3.65518 -3.4115,-14.6207 0,-1.34023 0.0406,-4.50805 0.0406,-3.20843 0.0406,-5.03601 0,-4.79234 -0.40613,-17.66667 0,-3.33027 -0.36552,-9.9502 -0.0406,-0.48735 -0.0406,-0.64981 0,-0.85287 1.05594,-0.85287 1.66513,0 4.50804,0.0406 3.28966,0.0406 4.46744,0.0406 0.9341,0 0.9341,0.73103 0,6.17318 -0.28429,18.56016 -0.24368,12.38698 -0.24368,18.56016 0,6.98544 3.1272,9.46283 2.68046,2.19311 9.86897,2.19311 6.5387,0 9.30039,-1.78697 3.49272,-2.23372 3.49272,-8.36629 0,-6.41686 -0.20307,-19.25058 -0.20306,-12.87433 -0.20306,-19.29119 0,-0.64981 1.17777,-0.81226 0.85288,-0.12184 2.43679,0 1.8682,0.16245 1.78697,0.16245 0.73103,0 2.1931,-0.12184 1.50269,-0.12184 2.23372,-0.12184 1.01533,0 1.01533,0.89349 z m 49.55836,36.55173 q 0,8.20383 -5.19847,14.25518 -5.44215,6.37624 -13.52414,6.37624 -5.03602,0 -8.81303,-3.1272 -1.70575,-1.58391 -3.41149,-3.20843 -0.24368,0.12184 -0.32491,0.64981 -0.0406,0.24368 -0.0406,4.54866 l -0.0406,11.45287 q 0,1.29962 -0.9341,1.29962 -6.2544,0 -7.39157,-0.16245 -0.9341,-0.12184 -0.9341,-1.05594 0,-5.19847 0.0812,-15.59541 0.0812,-10.39693 0.0812,-15.5954 0,-9.54406 -1.21839,-17.91035 -0.0812,-0.48736 -0.0812,-0.64981 0,-0.44674 0.40613,-0.56858 1.54329,-0.0812 4.50804,-0.44674 3.98008,-0.73104 4.46744,-0.73104 0.69042,0 0.89349,2.43678 0.12183,1.62452 0.20306,3.20843 0,0.32491 0.24368,0.64981 0.28429,-0.16245 0.64981,-0.56858 5.68582,-5.80767 11.49349,-5.80767 8.04138,0 13.56475,6.29502 5.32031,6.05135 5.32031,14.25518 z m -9.50345,-0.16245 q 0,-4.87357 -3.04598,-8.56935 -3.20843,-3.93947 -8.00077,-3.93947 -4.71111,0 -7.71647,4.06131 -2.76169,3.65517 -2.76169,8.52873 0,4.9548 2.84291,8.60997 3.12721,3.93946 7.96016,3.93946 4.62988,0 7.7977,-4.10191 2.92414,-3.81763 2.92414,-8.52874 z"
       id="text2"
       style="font-size:83.1755px;font-family:'Berlin Sans FB';-inkscape-font-specification:'Berlin Sans FB, Normal';letter-spacing:0.660262px;word-spacing:0.660262px;fill-rule:evenodd;stroke-width:13.0114"
       transform="scale(1.0242242,0.97634874)"
       aria-label="Sign Up" /></g></svg>
