<?xml version="1.0" encoding="UTF-8" standalone="no"?>
<!-- Created with Inkscape (http://www.inkscape.org/) -->

<svg
   width="102.54361mm"
   height="120.10709mm"
   viewBox="0 0 102.54361 120.10709"
   version="1.1"
   id="svg1"
   inkscape:version="1.3 (0e150ed6c4, 2023-07-21)"
   sodipodi:docname="safe-space-emblem.svg"
   xml:space="preserve"
   inkscape:export-filename="safe-space-logo.svg"
   inkscape:export-xdpi="96"
   inkscape:export-ydpi="96"
   xmlns:inkscape="http://www.inkscape.org/namespaces/inkscape"
   xmlns:sodipodi="http://sodipodi.sourceforge.net/DTD/sodipodi-0.dtd"
   xmlns="http://www.w3.org/2000/svg"
   xmlns:svg="http://www.w3.org/2000/svg"><sodipodi:namedview
     id="namedview1"
     pagecolor="#3f3f3f"
     bordercolor="#000000"
     borderopacity="0.25"
     inkscape:showpageshadow="2"
     inkscape:pageopacity="0.0"
     inkscape:pagecheckerboard="0"
     inkscape:deskcolor="#4e4e4e"
     inkscape:document-units="mm"
     inkscape:zoom="0.52221046"
     inkscape:cx="1013.959"
     inkscape:cy="539.05469"
     inkscape:window-width="1920"
     inkscape:window-height="1046"
     inkscape:window-x="-11"
     inkscape:window-y="-11"
     inkscape:window-maximized="1"
     inkscape:current-layer="layer1" /><defs
     id="defs1" /><g
     inkscape:label="Layer 1"
     inkscape:groupmode="layer"
     id="layer1"
     transform="translate(91.358614,-200.62345)"><path
       style="fill:#c3b1ff;fill-opacity:1"
       d="m -77.465187,320.33456 c -2.07299,-0.7603 -4.02023,-2.60495 -4.92115,-4.66186 -1.01681,-2.32151 -0.97893,-2.92078 0.92435,-14.6241 l 1.78917,-11.00165 -1.36218,-1.34794 c -0.77008,-0.76203 -1.73719,-2.10925 -2.22494,-3.09942 -0.82571,-1.67626 -0.86667,-1.90707 -0.9538,-5.37504 -0.0967,-3.84818 0.18802,-5.49072 1.34476,-7.75811 0.86254,-1.69072 3.32261,-3.91314 5.2713,-4.76208 l 1.71235,-0.74599 0.74745,-4.6586 c 0.41109,-2.56224 1.01884,-5.61059 1.35054,-6.77411 0.33169,-1.16353 0.58272,-2.12706 0.55782,-2.14118 -0.0249,-0.0141 -1.05683,-0.37184 -2.29319,-0.79492 -5.82074,-1.99184 -10.59969,-6.2211 -13.35539,-11.81921 -2.85232,-5.79439 -3.24637,-11.84928 -1.17375,-18.03562 4.47411,-13.35435 19.98688,-19.78297 32.5736,-13.49877 l 1.77361,0.88551 2.59243,-2.5662 c 4.81102,-4.76233 10.00204,-6.93182 16.58606,-6.93182 6.55391,0 11.91724,2.23047 16.562648,6.88798 2.66701,2.67396 3.73158,4.23623 5.16511,7.57982 1.20315,2.80624 1.71631,5.5472 1.71631,9.16733 0,4.46467 -1.04956,8.21552 -3.44274,12.30343 l -0.82572,1.41044 5.24309,-0.21982 c 2.88369,-0.1209 7.44868,-0.21981 10.14442,-0.21981 h 4.90135 l 1.73327,0.85377 c 2.13429,1.05131 4.48728,3.43399 5.43456,5.50312 2.04667,4.47053 1.13265,9.5956 -2.3286,13.05685 -1.35906,1.35906 -3.88301,2.78938 -5.48891,3.11056 -0.98526,0.19705 -0.98099,0.12719 -0.28947,4.72779 0.97451,6.4833 0.5954,9.68742 -1.53649,12.98587 -1.10227,1.7054 -3.11679,3.63447 -4.48278,4.29261 -0.61276,0.29524 -0.8599,0.59505 -0.8599,1.0432 0,0.3459 0.66308,6.72345 1.47352,14.17235 1.66655,15.31781 1.70385,16.72859 0.50063,18.93929 -0.97404,1.78964 -2.68906,3.3012 -4.52484,3.98805 -1.41919,0.53099 -1.87764,0.53775 -35.228498,0.51935 -28.35875,-0.0157 -33.95382,-0.0785 -34.806,-0.39107 z m 68.769528,-4.06078 c 0.59352,-0.26956 1.33089,-0.81017 1.63859,-1.20134 1.27286,-1.61819 1.27497,-1.517 -0.34637,-16.62671 -0.83106,-7.74491 -1.5617,-14.1372 -1.62363,-14.20508 -0.1611,-0.17657 -11.56192,3.64098 -12.03992,4.03156 -0.31912,0.26076 -0.59181,2.97238 -1.376328,13.68664 -0.5381,7.34881 -0.97367,13.68888 -0.96793,14.08907 l 0.0104,0.7276 6.813018,-0.006 c 6.05955,-0.005 6.93237,-0.06 7.89215,-0.49593 z m -61.645058,-29.12961 c 1.32105,-0.56627 2.8124,-2.01723 3.61258,-3.51474 0.53183,-0.99528 0.59711,-1.49349 0.59711,-4.55703 0,-3.78603 -0.19581,-4.45197 -1.81556,-6.17474 -1.4066,-1.49605 -2.67674,-2.01507 -4.93132,-2.01507 -2.96184,0 -5.05235,1.24385 -6.47089,3.85017 -0.64681,1.1884 -0.77624,1.77178 -0.88245,3.97741 -0.0744,1.54508 10e-4,3.08422 0.1882,3.82647 1.0652,4.2303 5.58031,6.37448 9.70233,4.60753 z m 52.272548,-4.36008 c 11.63106,-3.92335 12.84208,-4.45208 14.39063,-6.28313 1.02315,-1.20978 1.96391,-3.36289 2.14781,-4.91561 0.12724,-1.07435 -0.82129,-9.46833 -1.10675,-9.79418 -0.0402,-0.0458 -5.23457,1.59977 -11.54315,3.65688 -6.30859,2.0571 -13.137028,4.28369 -15.174318,4.94797 -4.53408,1.4784 -5.87829,2.13454 -7.00732,3.42043 -3.71479,4.23091 -2.14197,10.54799 3.09095,12.41453 2.28871,0.81637 3.12662,0.62638 15.202148,-3.44689 z m -52.295088,-34.27265 c 1.17429,-1.69451 4.40483,-4.60404 6.4825,-5.83836 2.17238,-1.29059 5.43799,-2.52279 7.36262,-2.7781 1.99569,-0.26474 2.07562,-0.40311 1.02669,-1.77728 -3.43095,-4.49477 -5.15,-10.86467 -4.45603,-16.51166 0.26086,-2.12262 1.0662,-5.12724 2.02585,-7.55819 0.15029,-0.38073 -0.14599,-0.61586 -1.61567,-1.28225 -3.16516,-1.43515 -5.61917,-1.90973 -9.1006,-1.75995 -5.23669,0.22529 -9.28195,2.01811 -12.97126,5.74872 -2.28156,2.30711 -3.46951,4.18422 -4.58253,7.24092 -0.6714,1.84389 -0.80476,2.64833 -0.91011,5.49005 -0.10311,2.78118 -0.0328,3.68809 0.42696,5.50613 1.41927,5.61245 5.11306,10.21414 10.22506,12.73827 1.70175,0.84027 4.1988,1.71802 5.18953,1.82421 0.0893,0.01 0.493,-0.45955 0.89699,-1.04251 z"
       id="path2-6-6"
       inkscape:export-filename="safe-space-icon.png"
       inkscape:export-xdpi="96"
       inkscape:export-ydpi="96" /></g></svg>
